<?xml version="1.0" encoding="UTF-8" standalone="no"?>
<svg
   width="269"
   height="56"
   viewBox="0 0 269 56"
   fill="none"
   version="1.1"
   id="svg7"
   sodipodi:docname="default-dark.svg"
   inkscape:version="1.3.2 (091e20e, 2023-11-25, custom)"
   xmlns:inkscape="http://www.inkscape.org/namespaces/inkscape"
   xmlns:sodipodi="http://sodipodi.sourceforge.net/DTD/sodipodi-0.dtd"
   xmlns="http://www.w3.org/2000/svg"
   xmlns:svg="http://www.w3.org/2000/svg">
  <sodipodi:namedview
     id="namedview7"
     pagecolor="#ffffff"
     bordercolor="#000000"
     borderopacity="0.25"
     inkscape:showpageshadow="2"
     inkscape:pageopacity="0.0"
     inkscape:pagecheckerboard="0"
     inkscape:deskcolor="#d1d1d1"
     inkscape:zoom="5.2156134"
     inkscape:cx="197.67569"
     inkscape:cy="27.992872"
     inkscape:window-width="1920"
     inkscape:window-height="992"
     inkscape:window-x="-8"
     inkscape:window-y="-8"
     inkscape:window-maximized="1"
     inkscape:current-layer="svg7" />
  <defs
     id="defs7">
    <filter
       id="filter0_i"
       x="24.9083"
       y="0"
       width="22.1854"
       height="55.3535"
       filterUnits="userSpaceOnUse"
       color-interpolation-filters="sRGB">
      <feFlood
         flood-opacity="0"
         result="BackgroundImageFix"
         id="feFlood5" />
      <feBlend
         mode="normal"
         in="SourceGraphic"
         in2="BackgroundImageFix"
         result="shape"
         id="feBlend5" />
      <feColorMatrix
         in="SourceAlpha"
         type="matrix"
         values="0 0 0 0 0 0 0 0 0 0 0 0 0 0 0 0 0 0 127 0"
         result="hardAlpha"
         id="feColorMatrix5" />
      <feOffset
         dx="-4"
         dy="3"
         id="feOffset5" />
      <feComposite
         in2="hardAlpha"
         operator="arithmetic"
         k2="-1"
         k3="1"
         id="feComposite5" />
      <feColorMatrix
         type="matrix"
         values="0 0 0 0 0.904167 0 0 0 0 0.892865 0 0 0 0 0.892865 0 0 0 0.4 0"
         id="feColorMatrix6" />
      <feBlend
         mode="normal"
         in2="shape"
         result="effect1_innerShadow"
         id="feBlend6" />
    </filter>
    <linearGradient
       id="paint0_linear"
       x1="29"
       y1="24.5"
       x2="40.5"
       y2="27.5"
       gradientUnits="userSpaceOnUse">
      <stop
         stop-opacity="0.25"
         id="stop6" />
      <stop
         offset="0.911458"
         stop-color="white"
         stop-opacity="0"
         id="stop7" />
    </linearGradient>
  </defs>
  <g
     id="Layer_1-2-0"
     data-name="Layer 1"
     transform="matrix(1.2820441,0,0,1.2820441,7.6379099,6.8104159)">
    <g
       id="g11">
      <g
         id="g8">
        <path
           class="cls-1"
           d="m 196.59,8.07 -0.64,3.2 c -0.62,-1.11 -1.5,-1.95 -2.65,-2.53 -1.15,-0.57 -2.53,-0.85 -4.14,-0.85 -2.01,0 -3.84,0.48 -5.46,1.43 -1.62,0.94 -2.9,2.26 -3.82,3.95 -0.93,1.68 -1.39,3.59 -1.39,5.72 0,1.66 0.36,3.11 1.07,4.34 0.71,1.24 1.69,2.18 2.95,2.83 1.26,0.65 2.69,0.98 4.3,0.98 1.33,0 2.55,-0.22 3.68,-0.66 1.13,-0.44 2.12,-1.06 2.97,-1.86 L 193,26.93 h 3.27 L 200,8.09 h -3.41 z m -2.62,12.24 c -0.63,1.21 -1.51,2.15 -2.64,2.83 -1.13,0.68 -2.38,1.01 -3.78,1.01 -1.78,0 -3.16,-0.46 -4.14,-1.4 -0.98,-0.94 -1.47,-2.24 -1.47,-3.9 0,-1.54 0.32,-2.92 0.96,-4.12 0.64,-1.21 1.52,-2.15 2.64,-2.83 1.12,-0.68 2.37,-1.01 3.77,-1.01 1.8,0 3.19,0.46 4.16,1.39 0.98,0.92 1.46,2.23 1.46,3.91 0,1.54 -0.31,2.92 -0.94,4.12 z"
           id="path1-0"
           style="fill:#ffffff;stroke-width:0px" />
        <path
           class="cls-1"
           d="m 174.55,21.48 2.49,1.78 c -0.87,1.21 -2.05,2.16 -3.52,2.85 -1.47,0.69 -3.05,1.03 -4.73,1.03 -1.8,0 -3.38,-0.34 -4.73,-1.02 -1.35,-0.68 -2.4,-1.62 -3.13,-2.84 -0.74,-1.22 -1.11,-2.65 -1.11,-4.29 0,-2.11 0.48,-4.01 1.43,-5.69 0.95,-1.69 2.26,-3 3.95,-3.97 1.68,-0.96 3.59,-1.44 5.72,-1.44 3.72,0 6.31,1.37 7.76,4.09 l -2.88,1.6 c -1,-1.8 -2.7,-2.7 -5.12,-2.7 -1.4,0 -2.66,0.33 -3.79,1.01 -1.13,0.68 -2.01,1.62 -2.65,2.83 -0.64,1.21 -0.96,2.59 -0.96,4.12 0,1.66 0.49,2.96 1.47,3.9 0.98,0.94 2.38,1.4 4.18,1.4 1.13,0 2.2,-0.23 3.18,-0.68 0.98,-0.45 1.8,-1.11 2.44,-1.99 z"
           id="path2"
           style="fill:#ffffff;stroke-width:0px" />
        <path
           class="cls-1"
           d="m 160.92,1.99 c 0,0.74 -0.23,1.33 -0.7,1.78 -0.46,0.45 -1.06,0.68 -1.8,0.68 -0.61,0 -1.13,-0.2 -1.53,-0.61 -0.4,-0.4 -0.6,-0.89 -0.6,-1.45 0,-0.66 0.23,-1.23 0.69,-1.69 0.46,-0.46 1.05,-0.69 1.76,-0.69 0.61,0 1.13,0.2 1.55,0.59 0.41,0.39 0.62,0.86 0.62,1.4 z"
           id="path3"
           style="fill:#ffffff;stroke-width:0px" />
        <polygon
           class="cls-1"
           points="155.72,8.07 159.14,8.07 155.41,26.91 152,26.91 "
           id="polygon3"
           style="fill:#ffffff;stroke-width:0px" />
        <path
           class="cls-1"
           d="m 143.69,20.91 c -0.07,0.36 -0.11,0.69 -0.11,1 0,0.76 0.21,1.34 0.63,1.74 0.41,0.4 1.03,0.61 1.86,0.61 1,0 1.9,-0.3 2.7,-0.89 l 0.71,2.59 c -1.14,0.78 -2.59,1.17 -4.38,1.17 -1.49,0 -2.7,-0.42 -3.6,-1.26 -0.91,-0.84 -1.37,-2 -1.37,-3.47 0,-0.5 0.05,-0.97 0.14,-1.42 l 2.03,-10.1 h -3.2 l 0.53,-2.81 h 3.24 l 0.82,-4.12 h 3.41 l -0.82,4.12 h 5.41 l -0.57,2.81 h -5.4 l -2.03,10.02 z"
           id="path4"
           style="fill:#ffffff;stroke-width:0px" />
        <path
           class="cls-1"
           d="m 137.96,8.07 -13.38,20.91 c -1.21,1.89 -2.36,3.21 -3.45,3.95 -1.09,0.73 -2.38,1.1 -3.88,1.1 -0.92,0 -1.82,-0.15 -2.7,-0.44 -0.88,-0.29 -1.56,-0.7 -2.03,-1.23 l 1.78,-2.52 c 0.85,0.85 1.92,1.28 3.2,1.28 0.81,0 1.52,-0.21 2.13,-0.64 0.62,-0.42 1.26,-1.15 1.93,-2.16 l 0.96,-1.5 -4.55,-18.74 h 3.41 l 3.63,15.08 9.49,-15.08 h 3.45 z"
           id="path5"
           style="fill:#ffffff;stroke-width:0px" />
        <polygon
           class="cls-1"
           points="112.89,0.53 116.3,0.53 111.04,26.91 107.62,26.91 "
           id="polygon5"
           style="fill:#ffffff;stroke-width:0px" />
        <path
           class="cls-1"
           d="m 104.17,8.07 -0.64,3.2 c -0.61,-1.11 -1.5,-1.95 -2.65,-2.53 -1.15,-0.57 -2.53,-0.85 -4.14,-0.85 -2.01,0 -3.83,0.48 -5.46,1.43 -1.62,0.94 -2.9,2.26 -3.82,3.95 -0.92,1.68 -1.39,3.59 -1.39,5.72 0,1.66 0.36,3.11 1.07,4.34 0.71,1.24 1.69,2.18 2.95,2.83 1.26,0.65 2.69,0.98 4.31,0.98 1.32,0 2.55,-0.22 3.68,-0.66 1.12,-0.44 2.11,-1.06 2.96,-1.86 l -0.46,2.31 h 3.27 l 3.73,-18.84 h -3.41 z m -2.62,12.24 c -0.63,1.21 -1.51,2.15 -2.63,2.83 -1.13,0.68 -2.39,1.01 -3.79,1.01 -1.78,0 -3.16,-0.46 -4.14,-1.4 -0.98,-0.94 -1.47,-2.24 -1.47,-3.9 0,-1.54 0.32,-2.92 0.96,-4.12 0.64,-1.21 1.52,-2.15 2.63,-2.83 1.11,-0.68 2.37,-1.01 3.77,-1.01 1.8,0 3.19,0.46 4.16,1.39 0.98,0.92 1.46,2.23 1.46,3.91 0,1.54 -0.31,2.92 -0.94,4.12 z"
           id="path6"
           style="fill:#ffffff;stroke-width:0px" />
        <path
           class="cls-1"
           d="m 84.03,14.15 c 0,0.69 -0.08,1.42 -0.21,2.21 l -2.1,10.56 h -3.41 l 2.1,-10.56 c 0.12,-0.64 0.18,-1.16 0.18,-1.57 0,-1.23 -0.37,-2.18 -1.11,-2.84 -0.73,-0.66 -1.82,-1 -3.27,-1 -1.85,0 -3.37,0.51 -4.57,1.51 -1.19,1.01 -2,2.51 -2.4,4.5 l -1.99,9.95 H 63.84 L 67.57,8.07 h 3.27 l -0.46,2.42 c 1.71,-1.73 3.98,-2.59 6.83,-2.59 2.16,0 3.84,0.55 5.03,1.64 1.19,1.09 1.8,2.63 1.8,4.62 z"
           id="path7"
           style="fill:#ffffff;stroke-width:0px" />
        <path
           class="cls-1"
           d="m 60.37,8.07 -0.63,3.2 C 59.12,10.16 58.24,9.32 57.09,8.74 55.94,8.17 54.56,7.89 52.95,7.89 c -2.01,0 -3.84,0.48 -5.46,1.43 -1.62,0.94 -2.89,2.26 -3.82,3.95 -0.93,1.68 -1.39,3.59 -1.39,5.72 0,1.66 0.36,3.11 1.07,4.34 0.71,1.24 1.69,2.18 2.95,2.83 1.26,0.65 2.69,0.98 4.3,0.98 1.33,0 2.55,-0.22 3.68,-0.66 1.13,-0.44 2.12,-1.06 2.97,-1.86 l -0.46,2.31 h 3.28 L 63.8,8.09 h -3.41 z m -2.61,12.24 c -0.63,1.21 -1.51,2.15 -2.64,2.83 -1.13,0.68 -2.39,1.01 -3.78,1.01 -1.78,0 -3.16,-0.46 -4.14,-1.4 -0.98,-0.94 -1.47,-2.24 -1.47,-3.9 0,-1.54 0.32,-2.92 0.96,-4.12 0.64,-1.21 1.52,-2.15 2.64,-2.83 1.11,-0.68 2.37,-1.01 3.77,-1.01 1.8,0 3.19,0.46 4.16,1.39 0.98,0.92 1.46,2.23 1.46,3.91 0,1.54 -0.31,2.92 -0.94,4.12 z"
           id="path8"
           style="fill:#ffffff;stroke-width:0px" />
      </g>
      <g
         id="g10">
        <path
           class="cls-1"
           d="m 35.67,17.36 c 0,1.89 -0.46,3.59 -1.37,5.09 -0.91,1.49 -2.18,2.66 -3.8,3.5 -1.62,0.84 -3.45,1.26 -5.5,1.26 h -3.62 v 6.19 h -3.34 c -1.57,0 -2.85,-1.27 -2.85,-2.84 v -3.35 h 6.19 v -4.55 h 3.65 c 1.45,0 2.65,-0.48 3.6,-1.43 0.95,-0.95 1.42,-2.24 1.42,-3.87 0,-1.63 -0.48,-2.93 -1.42,-3.88 -0.95,-0.95 -2.15,-1.42 -3.6,-1.42 H 19.16 V 7.51 H 25 c 2.04,0 3.87,0.42 5.5,1.26 1.63,0.84 2.89,2.01 3.8,3.5 0.91,1.5 1.37,3.19 1.37,5.09 z"
           id="path9"
           style="fill:#ffffff;stroke-width:0px" />
        <path
           class="cls-1"
           d="m 17.31,21.12 c 0,1.18 -0.36,2.24 -1.07,3.16 -0.71,0.93 -1.75,1.65 -3.11,2.15 -1.37,0.51 -2.98,0.76 -4.85,0.76 C 6.69,27.19 5.14,27 3.62,26.6 2.1,26.21 0.9,25.72 -0.01,25.13 l 1.84,-3.98 c 0.85,0.55 1.88,0.99 3.1,1.33 C 6.14,22.82 7.32,23 8.48,23 10.83,23 12,22.42 12,21.25 12,20.71 11.68,20.31 11.04,20.08 10.41,19.84 9.42,19.64 8.09,19.47 6.53,19.23 5.24,18.96 4.21,18.65 3.19,18.34 2.31,17.8 1.56,17.02 0.82,16.23 0.44,15.12 0.44,13.67 0.44,12.46 0.79,11.39 1.49,10.45 2.19,9.51 3.21,8.78 4.55,8.26 5.89,7.74 7.47,7.48 9.3,7.48 c 1.35,0 2.7,0.15 4.04,0.44 1.34,0.29 2.45,0.7 3.33,1.23 l -1.85,3.95 c -1.68,-0.95 -3.52,-1.43 -5.51,-1.43 -1.19,0 -2.08,0.17 -2.66,0.5 -0.59,0.33 -0.89,0.76 -0.89,1.28 0,0.59 0.32,1 0.96,1.24 0.64,0.24 1.66,0.46 3.06,0.68 1.56,0.26 2.85,0.54 3.84,0.83 1,0.3 1.86,0.84 2.6,1.62 0.73,0.79 1.1,1.88 1.1,3.28 z"
           id="path10"
           style="fill:#ffffff;stroke-width:0px" />
      </g>
    </g>
  </g>
</svg>
